<svg xmlns="http://www.w3.org/2000/svg" xmlns:xlink="http://www.w3.org/1999/xlink" aria-hidden="true" role="img" class="iconify iconify--react" viewBox="0 0 84 84">
    <g fill="none" stroke="currentColor" stroke-width="4">
        <circle cx="42" cy="42" r="30" />
        <circle cx="42" cy="42" r="4" />
        <path d="M 42 12 C 22.7 12 12 24.7 12 42 C 12 59.3 22.7 72 42 72 C 61.3 72 72 59.3 72 42 C 72 24.7 61.3 12 42 12 Z" />
        <path d="M 42 42 Q 34.3 42 27 37.3 C 28.8 32.7 32.6 28.6 37 25.3 C 41.5 22.1 47.6 19.5 54 19.5 C 60.5 19.5 66.6 22.1 71 25.3 C 75.4 28.6 79.2 32.7 81 37.3 C 73.7 42 62.9 42 54 42 Q 47.7 42 42 42 Z" />
    </g>
</svg>
